# xmcd CD database file
#
# Track frame offsets:
#	150
#	20148
#	44974
#	64550
#	89151
#	109553
#	131303
#	149079
#	153804
#	180806
#	199931
#	226616
#
# Disc length: 3364 seconds
#
# Revision: 0
# Processed by: cddbd v1.5.2PL0 Copyright (c) Steve Scherf et al.
# Submitted via: CDex 1.70beta2
#
DISCID=a10d220c
DTITLE=Brown, Greg - Winterhawk Music Festival, Hillsdale, NY, 04.08.2001
DYEAR=2001
DGENRE=Country
TTITLE0=Summer evening
TTITLE1=Kind-Hearted woman
TTITLE2=Your town now
TTITLE3=Down at the mill
TTITLE4=Never so far
TTITLE5=Living in a prayer
TTITLE6=Samson and Delilah (traditional)
TTITLE7=Announcements
TTITLE8=I need to tell you I love you
TTITLE9=Almost out of gas
TTITLE10=Laughing river
TTITLE11=Marriage chant
EXTD=YEAR: 2001
EXTT0=
EXTT1=
EXTT2=
EXTT3=
EXTT4=
EXTT5=
EXTT6=
EXTT7=
EXTT8=
EXTT9=
EXTT10=
EXTT11=
PLAYORDER=
